<?xml version="1.0" encoding="UTF-8"?>
<svg id="a" data-name="Ebene_1" xmlns="http://www.w3.org/2000/svg" viewBox="0 0 635.76 392.88">
  <path d="M159.97,16.35c10.3,1.99,15.09,9.99,15.28,21.68.05,3.23,1.39,6.45,1.39,9.68.04,42.49,25.4,68.34,58.39,88.71,4.18,2.58,11.62,3.16,16.2,1.29,77.16-31.55,154.14-63.57,231.1-95.62,28.8-12,57.54-24.16,86.15-36.6,23.96-10.42,33.55-6.76,42.92,17.54,6.87,17.82,13.54,35.73,20.24,53.62,9.01,24.07,3.8,34.99-20.73,41.5-66.12,17.55-132.33,34.77-198.49,52.16-47.26,12.42-94.51,24.83-141.73,37.39-18.74,4.99-30.52,41.79-17.72,56.1,1.91,2.14,7.51,2.36,10.9,1.48,8.3-2.15,13.68.24,16.66,8.08,5.46,14.37,10.93,28.74,16.16,43.2,3.25,8.98.59,15.12-8.85,18.62-24.46,9.07-48.84,18.39-73.1,27.98-9.09,3.59-15.57,1.77-19.17-7.36-5.63-14.3-11.17-28.65-16.11-43.2-1.23-3.63-1.29-8.62.21-12.08,6.32-14.58,4.06-24.67-7.02-34.78-6.06-5.53-11.96-12.11-15.49-19.41-33.42-69.26-46.26-141.29-26.21-217.28,5.73-21.7,7.55-22.43,29.02-12.69Z"/>
  <path d="M502.22,183.91c-4.22-5.41-11.95-6.31-17.26-2.01l-166.78,134.97c-5.31,4.3-6.2,12.17-1.98,17.59,2.43,3.11,6.01,4.73,9.63,4.73,2.68,0,5.37-.89,7.63-2.72l166.78-134.97c5.31-4.3,6.2-12.17,1.98-17.59Z"/>
  <path d="M158.15,375.24l-82.31-24.05c-4.77-1.4-9.76,1.34-11.16,6.11s1.34,9.76,6.11,11.16l82.31,24.05c.84.25,1.69.36,2.53.36,3.89,0,7.48-2.55,8.63-6.48,1.39-4.77-1.34-9.76-6.11-11.16Z"/>
  <path d="M373.54,214.95c-3.51-3.51-9.21-3.51-12.72,0l-58.84,58.84c-3.51,3.51-3.51,9.21,0,12.72,1.76,1.76,4.06,2.64,6.36,2.64s4.6-.88,6.36-2.64l58.84-58.84c3.51-3.51,3.51-9.21,0-12.72Z"/>
  <path d="M171.13,343.07L14.61,234.71c-4.66-3.23-10.62-1.31-13.31,4.28-2.69,5.59-1.09,12.73,3.57,15.96l156.52,108.36c1.53,1.06,3.21,1.57,4.86,1.57,3.37,0,6.64-2.09,8.44-5.84,2.69-5.59,1.09-12.73-3.57-15.96Z"/>
</svg>