<?xml version="1.0" encoding="UTF-8"?>
<svg id="a" data-name="Ebene_1" xmlns="http://www.w3.org/2000/svg" viewBox="0 0 368.5 207">
  <g id="b" data-name="Ebene_1">
    <g>
      <g>
        <path d="M124.4,57.8v73.2h110.1v-61.1l-19-12.1h-46.9v15.7l34.3,15.6v20.2h-57.1v-51.5h-21.5.1ZM207.7,20.6v24.1c0,3.8,2.9,6.8,6.5,6.8h6.6c3.6,0,6.5-3.1,6.5-6.8v-24.1c0-3.7-2.9-6.8-6.5-6.8h-6.6c-3.6,0-6.5,3.1-6.5,6.8h0ZM180.9,13.1v31.6c0,3.7,2.9,6.8,6.5,6.8h6.6c3.6,0,6.5-3.1,6.5-6.8V13.1c0-3.7-2.9-6.8-6.5-6.8h-6.6c-3.6,0-6.5,3.1-6.5,6.8h0ZM153.9,44.6c0,3.8,2.9,6.8,6.5,6.8h6.6c3.6,0,6.5-3.1,6.5-6.8v-24.1c0-3.7-2.9-6.8-6.5-6.8h-6.6c-3.6,0-6.5,3.1-6.5,6.8v24.1h0ZM134,51.5h6.6c3.6,0,6.5-3.1,6.5-6.8v-17.7c0-3.7-2.9-6.8-6.5-6.8h-6.6c-3.6,0-6.5,3.1-6.5,6.8v17.7c0,3.7,2.9,6.8,6.5,6.8"/>
        <path d="M116.2,57.7H48.7c-4.1,0-7.4,3.3-7.4,7.4v11.9c0,4.1,3.3,7.4,7.4,7.4h67.4v-26.8l.1.1Z"/>
        <path d="M317.2,19.7l-4,21.7,4,16.4v26.8l-10,21.4c-1.5,2.5-9.8,13.1-12,15l-26.4,20h-11.5c0,.1,20.3-26.7,20.3-26.7,1.8-2.7,3.2-5.2,4.2-7.9.9-2.4,1.4-4.9,1.5-7.5l.5-14.2h-41v-18.7l-13.2-8.1h54.2l4.5-16.5-4.5-21.6V1.8c-.2-1,.6-1.8,1.6-1.8h30c1,0,1.8.8,1.8,1.8v17.9Z"/>
      </g>
      <g>
        <path d="M1.2,205.9c0-1-.2-2.4-.3-4.4-.1-2-.3-4.2-.4-6.8-.1-2.6-.2-5.3-.3-8.1,0-2.8-.2-5.6-.2-8.4v-11.5c0-1.2,0-2.2.1-3h1.3c.7,0,1.4,0,2.3-.1h4.5c0,1.2-.1,2.5-.1,4.1v9.9c0,1.8,0,3,.1,3.6.5,0,1.1,0,1.9-.2s1.6-.1,2.6-.2c.9,0,1.9,0,2.8-.1s1.8,0,2.5,0h1.8c0-.9,0-2,.1-3.4,0-1.4,0-3,.1-4.7,0-1.7.1-3.3.2-4.9,0-1.6.1-3,.2-4.2h5.9c1,0,1.8,0,2.3.2-.1.8-.3,2-.4,3.5s-.2,3.3-.3,5.2c-.1,2-.2,4.1-.3,6.3,0,2.2-.2,4.5-.2,6.8s-.1,4.5-.2,6.6c0,1.9,0,3.8-.1,5.6v8.5h-7.3v-18.5h-11.3c0,1.4.2,3.1.3,5,0,1.9.2,3.7.3,5.6s.2,3.4.2,4.7.1,2.2.1,2.5c-.4,0-.9,0-1.6.1-.7,0-1.5,0-2.3.1H1.4l-.2.2Z"/>
        <path d="M41.4,206.5h-4.1c-.8,0-1.6,0-2.4-.1-.8,0-1.4,0-1.9-.1.2-1.2.5-2.8,1-4.9.4-2.1.9-4.4,1.5-7s1.2-5.3,1.8-8.2,1.3-5.7,2-8.5,1.3-5.5,1.9-8c.6-2.5,1.2-4.7,1.7-6.5,1.6-.2,3.5-.5,5.5-.7s4-.3,6-.3h2.9c1,0,2,.1,2.9.3.4,1.9.9,4.2,1.3,6.8.4,2.6.9,5.7,1.3,9.2.4,3.5.8,7.5,1.3,12.1.5,4.6.9,9.7,1.3,15.5-.6,0-1.4.2-2.4.3-1,0-2,.2-3.1.2h-2.9c0-.6,0-1.4-.1-2.4s0-2-.1-3.2c0-1.2-.1-2.3-.2-3.5,0-1.2-.1-2.2-.2-3.2,0-1,0-1.9-.1-2.6h-2.5c-.9,0-1.9,0-2.9.2s-2,.1-2.9.2c-.9,0-1.7.2-2.4.2s-1.1.1-1.4.2c-.4,1.8-.7,3.5-1.1,5.3-.4,1.8-.7,3.4-.9,4.9-.3,1.5-.4,2.8-.6,3.7l-.2.1ZM45,185.7c.7-.2,1.7-.3,3-.4,1.3-.1,2.7-.2,4.1-.3,1.4,0,2.6-.2,3.7-.2,0-.6-.1-1.6-.2-3,0-1.4-.2-3-.3-4.7s-.3-3.3-.4-4.8c-.1-1.5-.2-2.6-.3-3.4h-2c-.9,0-1.7.1-2.5.2-.8,0-1.4.1-1.7.2-.1.6-.3,1.5-.6,2.6s-.5,2.5-.9,4c-.3,1.5-.7,3.1-1,4.8-.4,1.7-.7,3.3-1,5h.1Z"/>
        <path d="M71.9,206.2v-7.2c0-2.8,0-5.8.1-9s.1-6.4.2-9.5c0-3.2.1-6.1.2-8.8,0-2.7.2-5,.3-6.9.8,0,1.8-.2,2.9-.2s2.2,0,3.2-.1h4s.2.7.6,1.8c.3,1.1.8,2.5,1.3,4.3s1.1,3.7,1.7,5.8,1.2,4.3,1.9,6.5c.6,2.2,1.2,4.3,1.7,6.2.5,2,1,3.6,1.3,5,.4,1.4.6,2.4.6,2.9h-.9c.3-.6.7-1.8,1.2-3.4.5-1.6,1.1-3.5,1.8-5.6.7-2.1,1.3-4.4,2-6.7s1.4-4.6,2-6.8c.7-2.2,1.2-4.2,1.7-5.9s.8-3.1,1-4h2.8c1.1,0,2.2,0,3.4.2,1.1,0,2,.2,2.7.3.4,2,.7,4.7.9,8,.2,3.3.2,6.8.2,10.5v8.4c0,2.8-.1,5.5-.2,8,0,2.5-.2,4.5-.3,6.1h-2.7c-1,0-1.9,0-2.8-.1-.9,0-1.6-.1-2.1-.1.2-1.9.3-4.2.4-6.8,0-2.6.2-5.3.2-8.1v-13.7c-.3,1-.7,2.3-1.2,4s-1.1,3.5-1.7,5.5-1.3,4-2,6.1-1.4,4-2,5.8-1.2,3.4-1.7,4.7-.8,2.1-1.1,2.6h-3.8c-.5,0-1.1,0-1.7-.2,0-.2-.2-.9-.5-1.8-.3-1-.6-2.2-1-3.8-.4-1.5-.9-3.2-1.4-5.1-.5-1.9-1-3.7-1.5-5.7-.5-1.9-1-3.8-1.5-5.6s-1-3.4-1.4-4.9c-.4-1.4-.7-2.6-1-3.4v30.7h-8,.2Z"/>
        <path d="M119.2,206.2v-7.2c0-2.8,0-5.8.1-9,0-3.2.1-6.4.2-9.5,0-3.2.1-6.1.2-8.8,0-2.7.2-5,.3-6.9.8,0,1.8-.2,2.9-.2s2.2,0,3.2-.1h4s.2.7.6,1.8c.3,1.1.8,2.5,1.3,4.3s1.1,3.7,1.7,5.8c.6,2.1,1.2,4.3,1.9,6.5.6,2.2,1.2,4.3,1.7,6.2.5,2,1,3.6,1.3,5,.4,1.4.6,2.4.6,2.9h-.9c.3-.6.7-1.8,1.2-3.4.5-1.6,1.1-3.5,1.8-5.6s1.3-4.4,2-6.7,1.4-4.6,2-6.8c.7-2.2,1.2-4.2,1.7-5.9s.8-3.1,1-4h2.8c1.1,0,2.2,0,3.4.2,1.1,0,2,.2,2.7.3.4,2,.7,4.7.9,8s.2,6.8.2,10.5v8.4c0,2.9-.1,5.5-.2,8,0,2.5-.2,4.5-.3,6.1h-2.7c-1,0-1.9,0-2.7-.1-.9,0-1.6-.1-2.1-.1.2-1.9.3-4.2.4-6.8,0-2.6.2-5.3.2-8.1v-13.7c-.3,1-.7,2.3-1.2,4s-1.1,3.5-1.7,5.5c-.6,2-1.3,4-2,6.1s-1.4,4-2,5.8-1.2,3.4-1.7,4.7-.8,2.1-1.1,2.6h-3.8c-.5,0-1.1,0-1.7-.2,0-.2-.2-.9-.5-1.8-.3-1-.6-2.2-1-3.8-.4-1.5-.9-3.2-1.4-5.1s-1-3.7-1.5-5.7c-.5-1.9-1-3.8-1.5-5.6s-1-3.4-1.4-4.9c-.4-1.4-.7-2.6-1-3.4v30.7h-8,.1Z"/>
        <path d="M189.2,206.4c-2.3-.1-4.5-.3-6.7-.4-2.2-.1-4.5-.2-6.8-.3-1.5,0-3.1,0-4.7-.2-1.6,0-3.2-.1-4.8-.2-.1-3.5-.2-7-.3-10.4v-9.6c0-5.3,0-9.7.1-13.2,0-3.5.2-6,.2-7.4,4-.7,7.7-1.2,11.1-1.6,3.4-.3,6.3-.6,8.6-.7,2.3-.1,3.8-.2,4.3-.2v3.2c0,1-.2,2.1-.3,3.3l-15.9,1.3v9.2h14.2v6.9h-14.5v12.2h10.1c1.3,0,2.6,0,3.7.1s2,.1,2.7.2v2.2c0,.8-.1,1.7-.2,2.5,0,.8-.2,1.5-.3,2.1,0,.6-.2,1-.2,1.3l-.3-.3Z"/>
        <path d="M199.1,206.8c-.1-2.5-.3-5.5-.5-9-.2-3.6-.4-7.4-.6-11.4-.2-4.1-.4-8.1-.6-12.2-.2-4-.4-7.7-.6-11.1.8,0,1.8-.2,3-.2s2.5-.2,3.9-.2,2.8-.2,4.1-.2h3.6c1.7,0,3.3.2,4.9.5,1.6.3,3.1.8,4.4,1.6,1.3.8,2.4,1.9,3.2,3.3.8,1.4,1.2,3.3,1.2,5.5s-.5,4.4-1.6,6.3c-1.1,2-2.7,3.4-4.8,4.3.5.9,1.1,2,1.7,3.4.6,1.4,1.3,2.8,1.9,4.4.6,1.6,1.3,3.2,1.9,4.8.6,1.6,1.1,3.1,1.6,4.4.5,1.4.8,2.5,1,3.3-.5.3-1.1.6-1.9.9-.8.3-1.6.5-2.4.8-.8.2-1.6.4-2.2.6-.6.2-1,.2-1.2.2-.2-1.1-.5-2.5-.9-4s-.9-3.2-1.4-4.9-1.1-3.4-1.6-5-1.1-3-1.5-4.3c-.5-1.3-.8-2.2-1.1-2.8-.7.2-1.5.3-2.3.5-.8.1-1.6.2-2.3.3-.7,0-1.3.1-1.7.1,0,.4.1,1.2.2,2.4s.2,2.5.3,4.1.2,3.2.3,4.9.2,3.3.3,4.8c0,1.5.2,2.7.2,3.7-.7.1-1.5.2-2.5.3-1,0-2,.1-3,.1h-2.9l-.1-.2ZM205.5,180.4h2.6c.8,0,1.9-.2,3-.4,1.9-.4,3.3-.9,4.3-1.4,1-.6,1.7-1.3,2.1-2.1.4-.8.6-1.8.6-2.9,0-1.6-.3-2.8-1-3.5s-1.6-1.2-2.7-1.4c-1.1-.2-2.4-.3-3.8-.3s-.8,0-1.4,0-1.2,0-1.8.1c-.6,0-1.2.1-1.7.1h-1.1c0,.4,0,1,.2,1.8,0,.8.1,1.7.2,2.7s.2,2,.2,3,.1,1.9.2,2.7c0,.8.1,1.3.1,1.6h0Z"/>
        <path d="M233.2,205.9c0-1-.2-2.4-.3-4.4s-.3-4.2-.4-6.8c-.1-2.6-.2-5.3-.3-8.1s-.2-5.6-.2-8.4v-11.5c0-1.2,0-2.2.1-3h1.3c.7,0,1.4,0,2.3-.1h4.5c0,1.2-.1,2.5-.1,4.1v9.9c0,1.8,0,3,.1,3.6.5,0,1.1,0,1.9-.2s1.6-.1,2.6-.2c.9,0,1.9,0,2.8-.1s1.8,0,2.5,0h1.8c0-.9,0-2,.1-3.4,0-1.4,0-3,.1-4.7,0-1.7.1-3.3.2-4.9,0-1.6.1-3,.2-4.2h5.9c1,0,1.8,0,2.3.2-.1.8-.3,2-.4,3.5s-.2,3.3-.3,5.2c-.1,2-.2,4.1-.3,6.3s-.2,4.5-.2,6.8-.1,4.5-.2,6.6c0,1.9,0,3.8-.1,5.6s0,3.4,0,4.9v3.6h-7.3v-18.5h-11.3c0,1.4.2,3.1.3,5,0,1.9.2,3.7.3,5.6s.2,3.4.2,4.7.1,2.2.1,2.5c-.4,0-.9,0-1.6.1-.7,0-1.5,0-2.3.1h-4.1l-.2.2Z"/>
        <path d="M273.3,206.5h-4.1c-.8,0-1.6,0-2.4-.1-.8,0-1.4,0-1.9-.1.2-1.2.5-2.8,1-4.9.4-2.1.9-4.4,1.5-7s1.2-5.3,1.8-8.2c.6-2.9,1.3-5.7,2-8.5s1.3-5.5,1.9-8,1.2-4.7,1.7-6.5c1.6-.2,3.5-.5,5.5-.7s4-.3,6-.3h2.9c1,0,2,.1,2.9.3.4,1.9.9,4.2,1.3,6.8s.9,5.7,1.3,9.2.8,7.5,1.3,12.1.9,9.7,1.3,15.5c-.6,0-1.4.2-2.4.3-1,0-2,.2-3.1.2h-2.9c0-.6,0-1.4-.1-2.4s0-2-.1-3.2c0-1.2-.1-2.3-.2-3.5,0-1.2-.1-2.2-.2-3.2,0-1,0-1.9-.1-2.6h-2.5c-.9,0-1.9,0-2.9.2s-2,.1-2.9.2c-.9,0-1.7.2-2.4.2s-1.1.1-1.4.2c-.4,1.8-.7,3.5-1.1,5.3s-.7,3.4-.9,4.9c-.3,1.5-.4,2.8-.6,3.7l-.2.1ZM276.9,185.7c.7-.2,1.7-.3,3-.4,1.3-.1,2.7-.2,4.1-.3,1.4,0,2.6-.2,3.7-.2,0-.6-.1-1.6-.2-3,0-1.4-.2-3-.3-4.7s-.3-3.3-.4-4.8-.2-2.6-.3-3.4h-2c-.9,0-1.7.1-2.5.2-.8,0-1.4.1-1.7.2-.1.6-.3,1.5-.6,2.6-.3,1.1-.5,2.5-.9,4-.3,1.5-.7,3.1-1,4.8-.4,1.7-.7,3.3-1,5h.1Z"/>
        <path d="M305,206.8c-.1-2.5-.3-5.5-.5-9-.2-3.6-.4-7.4-.6-11.4-.2-4.1-.4-8.1-.6-12.2-.2-4-.4-7.7-.6-11.1.8,0,1.8-.2,3-.2s2.5-.2,3.9-.2,2.8-.2,4.1-.2h3.6c1.7,0,3.3.2,4.9.5s3.1.8,4.4,1.6,2.4,1.9,3.2,3.3c.8,1.4,1.2,3.3,1.2,5.5s-.5,4.4-1.6,6.3c-1.1,2-2.7,3.4-4.8,4.3.5.9,1.1,2,1.7,3.4s1.3,2.8,1.9,4.4c.6,1.6,1.3,3.2,1.9,4.8s1.1,3.1,1.6,4.4c.5,1.4.8,2.5,1,3.3-.5.3-1.1.6-1.9.9-.8.3-1.6.5-2.4.8-.8.2-1.6.4-2.2.6-.6.2-1,.2-1.2.2-.2-1.1-.5-2.5-.9-4s-.9-3.2-1.4-4.9-1.1-3.4-1.6-5-1.1-3-1.5-4.3c-.5-1.3-.8-2.2-1.1-2.8-.7.2-1.5.3-2.3.5-.8.1-1.6.2-2.3.3-.7,0-1.3.1-1.7.1,0,.4.1,1.2.2,2.4s.2,2.5.3,4.1c.1,1.6.2,3.2.3,4.9.1,1.7.2,3.3.3,4.8,0,1.5.2,2.7.2,3.7-.7.1-1.5.2-2.5.3-1,0-2,.1-3,.1h-2.9l-.1-.2ZM311.4,180.4h2.6c.8,0,1.9-.2,3-.4,1.9-.4,3.3-.9,4.3-1.4,1-.6,1.7-1.3,2.1-2.1s.6-1.8.6-2.9c0-1.6-.3-2.8-1-3.5s-1.6-1.2-2.7-1.4-2.4-.3-3.8-.3h-1.4c-.6,0-1.2,0-1.8.1-.6,0-1.2.1-1.7.1h-1.1c0,.4,0,1,.2,1.8,0,.8.1,1.7.2,2.7s.2,2,.2,3,.1,1.9.2,2.7c0,.8.1,1.3.1,1.6h0Z"/>
        <path d="M337.4,169.6c0-.4-.2-.9-.2-1.6s-.1-1.4-.2-2.1v-3.3c2.5-.2,5.3-.3,8.5-.4,3.2-.1,6.4-.2,9.7-.2s4.8,0,7,.1c2.3,0,4.4.3,6.3.5v3.8c0,1.2-.2,2.1-.3,2.8h-11.2c0,.8,0,2,.1,3.7,0,1.7.1,3.6.2,5.7,0,2.2.2,4.4.2,6.8s.2,4.7.2,7,.2,4.4.2,6.4.1,3.5.2,4.8v2.3c-.7.1-1.5.2-2.6.3-1.1,0-2.1.2-3.2.2h-2.6c0-1.3-.1-2.9-.2-4.9,0-2-.1-4.1-.2-6.5,0-2.4,0-4.8-.1-7.3v-18.6c-.8,0-1.8,0-2.8.1-1,0-2.1,0-3.2.1s-2.1,0-3.1.1h-2.7v.2Z"/>
      </g>
    </g>
  </g>
</svg>