<?xml version="1.0" encoding="UTF-8"?>
<svg id="a" data-name="Ebene_1" xmlns="http://www.w3.org/2000/svg" viewBox="0 0 492.79 490.48">
  <path d="M278.96,21.28c0,.6,0,1.12,0,1.5v2.36s.28,1.17.28,1.17c-.5.34-1.23.78-2.26,1.26-3.18,1.51-5.59,3.28-7.34,4.57-.35.25-.79.58-1.07.78-51.69,23.78-63.41,71.47-67.73,105.32-1.43,11.24,3.35,24.54,11.63,32.36,59.84,56.47,120.58,113.09,182.72,170.96,25.09,23.37,47.72,44.14,69.17,63.52,5.25,4.74,7.31,7.46,8.1,8.73-.7,1.28-2.52,3.99-7.18,8.74-11.62,11.83-23.59,23.77-35.17,35.32l-5.14,5.13c-5.07,5.06-7.93,6.74-9.1,7.28-1.05-.63-3.53-2.48-7.64-7.5-28.63-35-57.64-70.69-85.69-105.2-14.61-17.98-29.22-35.95-43.85-53.92l-7.3-8.97c-27.95-34.33-56.85-69.83-85.39-104.66-8.53-10.41-23.13-16.39-40.04-16.39-18.36,0-43.03,7.35-52.14,28.08-4.29,9.76-.95,20.12,2.98,26.86-8.11,8.18-16.41,16.53-24.71,24.68-16.25-16.34-32.64-32.52-48.83-48.2,8.67-8.9,17.82-18.14,27.12-26.9,23.25-.92,38.65-12.54,45.78-34.56,2.24-6.9,4.79-12.11,7.61-15.48,50.37-60.42,107.61-95.35,174.99-106.8.06-.01.13-.02.2-.03M288.69,0c-3.28,0-7.6.63-13.28,1.59-77.49,13.16-137.76,54.64-187,113.71-5.19,6.23-8.74,14.32-11.27,22.13-4.62,14.27-12.88,20.5-28.76,20.77-3.77.07-8.29,2.18-11.08,4.81-11.2,10.52-21.98,21.49-32.67,32.53-6.83,7.05-5.8,13.7,1.23,20.49,18.76,18.13,37.33,36.47,55.7,54.99,3.58,3.61,7.05,5.36,10.5,5.36s6.73-1.7,10.12-5c11-10.74,21.82-21.66,32.65-32.58,5.91-5.96,5.86-11.85.47-18.51-2.2-2.72-4.31-7.91-3.16-10.53,4.54-10.32,19.64-16.13,33.83-16.13,9.97,0,19.5,2.87,24.57,9.06,30.97,37.8,61.8,75.7,92.65,113.59,43.19,53.05,86.25,106.21,129.57,159.16,8.24,10.07,15.44,15.04,22.94,15.04s14.55-4.48,23.41-13.33c13.52-13.5,27.06-26.97,40.45-40.6,18.25-18.58,17.61-28.82-1.78-46.33-23.16-20.91-46.11-42.05-68.95-63.31-61.01-56.82-121.99-113.66-182.62-170.87-3.59-3.39-6.14-10.41-5.52-15.28,4.91-38.47,17.95-72.24,56.62-89.85,2.94-1.34,5.31-3.88,8.24-5.27,10.57-5,15.87-12.67,13.42-22.88C298.95,5.25,298.17,0,288.69,0h0Z"/>
</svg>