<?xml version="1.0" encoding="UTF-8"?>
<svg id="a" data-name="Ebene_1" xmlns="http://www.w3.org/2000/svg" viewBox="0 0 512 437.28">
  <defs>
    <style>
      .b {
        fill: #536f5f;
      }

      .c {
        fill: #f9f5eb;
      }
    </style>
  </defs>
  <path class="b" d="M225.8,425.38l-2.5-2.3L48.1,260.38C17.4,231.88,0,191.88,0,149.98v-3.3C0,76.28,50,15.88,119.2,2.68c39.4-7.6,79.7,1.5,111.8,24.1,9,6.4,17.4,13.8,25,22.3,4.2-4.8,8.7-9.2,13.5-13.3,3.7-3.2,7.5-6.2,11.5-9h0c32.1-22.6,72.4-31.7,111.8-24.2,69.2,13.2,119.2,73.7,119.2,144.1v3.3c0,41.9-17.4,81.9-48.1,110.4l-175.2,162.7-2.5,2.3c-8.2,7.6-19,11.9-30.2,11.9s-22-4.2-30.2-11.9h0Z"/>
  <path class="c" d="M239.1,102.18c-.4-.3-.7-.7-1-1.1l-17.8-20-.1-.1h0c-23.1-25.9-58-37.7-92-31.2-46.6,8.9-80.2,49.5-80.2,96.9v3.3c0,28.5,11.9,55.8,32.8,75.2l175.2,162.7,175.2-162.7c20.9-19.4,32.8-46.7,32.8-75.2v-3.3c0-47.3-33.6-88-80.1-96.9-34-6.5-69,5.4-92,31.2l-.1.1-.1.1-17.8,20c-.3.4-.7.7-1,1.1-4.5,4.5-10.6,7-16.9,7s-12.4-2.5-16.9-7v-.1Z"/>
</svg>