<?xml version="1.0" encoding="UTF-8"?>
<svg id="a" data-name="Ebene_1" xmlns="http://www.w3.org/2000/svg" viewBox="0 0 22.48 22.68">
  <path d="M11.24,15.12c-2.07,0-3.75-1.69-3.75-3.78s1.68-3.78,3.75-3.78,3.75,1.69,3.75,3.78-1.68,3.78-3.75,3.78ZM11.24,5.52c-3.19,0-5.77,2.61-5.77,5.82s2.59,5.82,5.77,5.82,5.77-2.61,5.77-5.82-2.58-5.82-5.77-5.82Z"/>
  <path d="M18.59,5.29c0,.75-.6,1.36-1.35,1.36s-1.35-.61-1.35-1.36.6-1.36,1.35-1.36,1.35.61,1.35,1.36Z"/>
  <path d="M11.24,0c-3.05,0-3.44.01-4.63.07-1.2.06-2.01.25-2.73.53-.74.29-1.36.68-1.99,1.31-.62.63-1.01,1.26-1.3,2.01-.28.72-.47,1.54-.52,2.75-.06,1.21-.07,1.6-.07,4.68s.01,3.47.07,4.68c.05,1.21.24,2.03.52,2.75.29.75.67,1.38,1.3,2.01.63.63,1.25,1.02,1.99,1.31.72.28,1.53.47,2.73.53,1.2.06,1.58.07,4.63.07s3.43-.01,4.63-.07c1.2-.05,2.01-.25,2.73-.53.74-.29,1.37-.68,1.99-1.31.62-.63,1.01-1.26,1.3-2.01.28-.72.47-1.55.52-2.75.06-1.21.07-1.6.07-4.68s-.01-3.47-.07-4.68c-.05-1.21-.24-2.03-.52-2.75-.29-.75-.67-1.38-1.3-2.01-.62-.63-1.25-1.02-1.99-1.31-.72-.28-1.53-.47-2.73-.53-1.2-.05-1.58-.07-4.63-.07ZM11.24,2.04c3,0,3.36.01,4.54.07,1.1.05,1.69.23,2.09.39.52.21.9.45,1.29.85.39.4.64.77.84,1.3.15.4.34,1,.39,2.11.05,1.19.07,1.55.07,4.58s-.01,3.39-.07,4.58c-.05,1.11-.23,1.7-.39,2.1-.2.53-.45.91-.84,1.3-.39.4-.77.64-1.29.85-.4.16-.99.34-2.09.39-1.18.05-1.54.07-4.54.07s-3.36-.01-4.54-.07c-1.1-.05-1.69-.24-2.09-.39-.52-.21-.9-.45-1.29-.85-.39-.4-.64-.77-.84-1.3-.15-.4-.34-1-.39-2.1-.05-1.2-.07-1.55-.07-4.58s.01-3.39.07-4.58c.05-1.11.23-1.71.39-2.11.2-.53.45-.91.84-1.3.39-.4.77-.64,1.29-.85.4-.16.99-.34,2.09-.39,1.19-.05,1.54-.07,4.54-.07Z"/>
</svg>