<?xml version="1.0" encoding="UTF-8"?>
<svg id="a" data-name="Ebene_1" xmlns="http://www.w3.org/2000/svg" viewBox="0 0 19 19">
  <path d="M8.13,16.25c1.8,0,3.55-.6,4.97-1.71l4.46,4.46,1.44-1.44-4.46-4.46c1.11-1.42,1.72-3.17,1.72-4.97C16.25,3.65,12.61,0,8.13,0S0,3.65,0,8.13s3.65,8.13,8.13,8.13ZM8.13,2.03c3.36,0,6.09,2.73,6.09,6.09s-2.73,6.09-6.09,6.09-6.09-2.73-6.09-6.09,2.73-6.09,6.09-6.09Z"/>
  <path d="M9.56,6.69c.38.39.6.9.6,1.44h2.03c0-.53-.1-1.06-.31-1.56-.2-.49-.5-.94-.88-1.32-1.54-1.54-4.2-1.54-5.74,0l1.43,1.44c.77-.77,2.1-.77,2.87,0Z"/>
</svg>