<?xml version="1.0" encoding="UTF-8"?>
<svg id="a" data-name="Ebene_1" xmlns="http://www.w3.org/2000/svg" viewBox="0 0 21.05 16.67">
  <defs>
    <style>
      .b {
        fill-rule: evenodd;
      }
    </style>
  </defs>
  <path class="b" d="M3.51,7.5c.48,0,.88-.37.88-.83V.83c0-.46-.39-.83-.88-.83s-.88.37-.88.83v5.83c0,.46.39.83.88.83Z"/>
  <path class="b" d="M10.53,7.5c-.48,0-.88.37-.88.83v7.5c0,.46.39.83.88.83s.88-.37.88-.83v-7.5c0-.46-.39-.83-.88-.83Z"/>
  <path class="b" d="M17.54,9.17c.48,0,.88-.37.88-.83V.83c0-.46-.39-.83-.88-.83s-.88.37-.88.83v7.5c0,.46.39.83.88.83Z"/>
  <path class="b" d="M6.14,9.17H.88c-.48,0-.88.37-.88.83s.39.83.88.83h1.75v5c0,.46.39.83.88.83s.88-.37.88-.83v-5h1.75c.48,0,.88-.37.88-.83s-.39-.83-.88-.83Z"/>
  <path class="b" d="M13.16,4.17h-1.75V.83c0-.46-.39-.83-.88-.83s-.88.37-.88.83v3.33h-1.75c-.48,0-.88.37-.88.83s.39.83.88.83h5.26c.48,0,.88-.37.88-.83s-.39-.83-.88-.83Z"/>
  <path class="b" d="M20.18,10.83h-5.26c-.48,0-.88.37-.88.83s.39.83.88.83h1.75v3.33c0,.46.39.83.88.83s.88-.37.88-.83v-3.33h1.75c.48,0,.88-.37.88-.83s-.39-.83-.88-.83Z"/>
</svg>