<?xml version="1.0" encoding="UTF-8"?>
<svg id="a" data-name="Ebene_1" xmlns="http://www.w3.org/2000/svg" viewBox="0 0 24.74 18.02">
  <path d="M12.37,18.02c-.75,0-7.42-.01-9.28-.52-1.26-.34-2.25-1.34-2.58-2.62C0,12.97,0,9.17,0,9.01s0-3.96.51-5.87C.84,1.86,1.83.86,3.09.52,4.95.01,11.62,0,12.37,0s7.42.01,9.28.52c1.26.34,2.25,1.34,2.58,2.62h0c.5,1.91.51,5.71.51,5.87s0,3.96-.51,5.87c-.33,1.27-1.33,2.28-2.58,2.62-1.86.51-8.52.52-9.28.52ZM12.37,1.5c-1.99,0-7.48.08-8.89.47-.74.2-1.33.8-1.53,1.55-.45,1.73-.46,5.45-.46,5.49s0,3.76.46,5.49c.2.76.78,1.35,1.52,1.55,1.41.38,6.89.47,8.89.47s7.48-.08,8.88-.47c.74-.2,1.33-.8,1.53-1.55.46-1.73.46-5.45.46-5.49s0-3.76-.46-5.49h0c-.2-.76-.78-1.35-1.53-1.55-1.41-.38-6.89-.47-8.88-.47ZM9.24,13.79V4.23l8.33,4.78-8.33,4.78ZM10.74,6.82v4.38l3.82-2.19-3.82-2.19Z"/>
</svg>