<svg width="23" height="23" viewBox="0 0 23 23" fill="none" xmlns="http://www.w3.org/2000/svg">
<path d="M11.7113 15.3214C9.6411 15.3214 7.96365 13.6294 7.96365 11.5413C7.96365 9.4531 9.6411 7.7627 11.7113 7.7627C13.7799 7.7627 15.4573 9.4531 15.4573 11.5413C15.4573 13.6294 13.7799 15.3214 11.7113 15.3214ZM11.7113 5.71946C8.52333 5.71946 5.93799 8.32563 5.93799 11.5413C5.93799 14.7569 8.52333 17.363 11.7113 17.363C14.8992 17.363 17.483 14.7569 17.483 11.5412C17.483 8.32563 14.8992 5.71946 11.7113 5.71946Z" fill="#F9F5EB"/>
<path d="M19.0605 5.48872C19.0605 6.23929 18.4563 6.85034 17.7106 6.85034C16.9665 6.85034 16.3623 6.23929 16.3623 5.48872C16.3623 4.73654 16.9665 4.12709 17.7106 4.12709C18.4563 4.12709 19.0605 4.73654 19.0605 5.48872Z" fill="#F9F5EB"/>
<path d="M11.711 0.202791C8.65663 0.202791 8.27503 0.215622 7.07617 0.270151C5.8789 0.326284 5.06164 0.517137 4.34614 0.797802C3.60679 1.08809 2.98193 1.4746 2.35547 2.1065C1.73219 2.73679 1.34582 3.36869 1.05962 4.11445C0.781366 4.83616 0.592156 5.65891 0.538097 6.86657C0.482447 8.07584 0.469726 8.46235 0.469726 11.5416C0.469726 14.6209 0.482447 15.0074 0.538097 16.2167C0.592157 17.4228 0.781367 18.2471 1.05962 18.9688C1.34582 19.7146 1.73219 20.3465 2.35547 20.9768C2.98193 21.6071 3.60679 21.9952 4.34614 22.2855C5.06164 22.5645 5.8789 22.757 7.07617 22.8115C8.27503 22.8677 8.65663 22.8805 11.711 22.8805C14.7638 22.8805 15.1454 22.8677 16.3443 22.8115C17.5415 22.757 18.3588 22.5645 19.0743 22.2855C19.8137 21.9952 20.4401 21.6071 21.065 20.9768C21.6899 20.3465 22.0746 19.7146 22.3608 18.9688C22.6391 18.2471 22.8299 17.4228 22.8839 16.2167C22.9396 15.0074 22.9507 14.6209 22.9507 11.5416C22.9507 8.46235 22.9396 8.07583 22.8839 6.86657C22.8299 5.65891 22.6391 4.83616 22.3608 4.11445C22.0746 3.36869 21.6899 2.73679 21.065 2.1065C20.4401 1.4746 19.8137 1.08809 19.0743 0.797802C18.3588 0.517137 17.5415 0.326284 16.3443 0.270151C15.1454 0.215622 14.7638 0.202791 11.711 0.202791ZM11.711 2.24443C14.7129 2.24443 15.0675 2.25726 16.2521 2.31178C17.3492 2.3615 17.9438 2.54594 18.3397 2.70311C18.8644 2.9084 19.2381 3.15378 19.6324 3.54992C20.0251 3.94766 20.27 4.32455 20.4735 4.85381C20.6277 5.25315 20.8106 5.85297 20.8615 6.95959C20.9139 8.15442 20.9267 8.51367 20.9267 11.5416C20.9267 14.5696 20.9139 14.9273 20.8615 16.1237C20.8106 17.2287 20.6277 17.8285 20.4735 18.2279C20.27 18.7571 20.0251 19.1356 19.6324 19.5318C19.2381 19.9295 18.8644 20.1749 18.3397 20.3802C17.9438 20.5357 17.3492 20.7202 16.2521 20.7715C15.0675 20.826 14.7129 20.8373 11.711 20.8373C8.70751 20.8373 8.35453 20.826 7.16839 20.7715C6.07129 20.7202 5.47663 20.5357 5.08072 20.3802C4.55602 20.1749 4.18237 19.9295 3.78805 19.5318C3.39533 19.1356 3.15046 18.7571 2.94695 18.2279C2.7943 17.8285 2.60987 17.2287 2.56058 16.1237C2.50652 14.9273 2.4938 14.5696 2.4938 11.5416C2.4938 8.51367 2.50651 8.15442 2.56057 6.95959C2.60986 5.85297 2.7943 5.25315 2.94694 4.85381C3.15046 4.32455 3.39532 3.94766 3.78805 3.54992C4.18237 3.15378 4.55602 2.9084 5.08072 2.70311C5.47663 2.54594 6.07129 2.3615 7.16839 2.31178C8.35453 2.25726 8.7091 2.24443 11.711 2.24443Z" fill="#F9F5EB"/>
</svg>
