<svg width="31" height="29" viewBox="0 0 31 29" fill="none" xmlns="http://www.w3.org/2000/svg">
<path fill-rule="evenodd" clip-rule="evenodd" d="M0.5 1.5C0.5 0.671573 1.17157 0 2 0H29C29.8284 0 30.5 0.671573 30.5 1.5C30.5 2.32843 29.8284 3 29 3H2C1.17157 3 0.5 2.32843 0.5 1.5Z" fill="#F9F5EB"/>
<path fill-rule="evenodd" clip-rule="evenodd" d="M3.20515 5.90708C3.67973 5.22807 4.61491 5.06233 5.29392 5.53691L27.4244 21.0044C28.1034 21.4789 28.2692 22.4141 27.7946 23.0931C27.32 23.7721 26.3848 23.9379 25.7058 23.4633L3.57532 7.99586C2.8963 7.52128 2.73057 6.5861 3.20515 5.90708Z" fill="#F9F5EB"/>
<path fill-rule="evenodd" clip-rule="evenodd" d="M0.5 27.5C0.5 26.6716 1.17157 26 2 26H29C29.8284 26 30.5 26.6716 30.5 27.5C30.5 28.3284 29.8284 29 29 29H2C1.17157 29 0.5 28.3284 0.5 27.5Z" fill="#F9F5EB"/>
</svg>
