<svg width="31" height="24" viewBox="0 0 31 24" fill="none" xmlns="http://www.w3.org/2000/svg">
<path fill-rule="evenodd" clip-rule="evenodd" d="M0.5 2C0.5 1.17157 1.17157 0.5 2 0.5H29C29.8284 0.5 30.5 1.17157 30.5 2C30.5 2.82843 29.8284 3.5 29 3.5H2C1.17157 3.5 0.5 2.82843 0.5 2Z" fill="#F9F5EB"/>
<path fill-rule="evenodd" clip-rule="evenodd" d="M0.5 12C0.5 11.1716 1.17157 10.5 2 10.5H29C29.8284 10.5 30.5 11.1716 30.5 12C30.5 12.8284 29.8284 13.5 29 13.5H2C1.17157 13.5 0.5 12.8284 0.5 12Z" fill="#F9F5EB"/>
<path fill-rule="evenodd" clip-rule="evenodd" d="M0.5 22C0.5 21.1716 1.17157 20.5 2 20.5H29C29.8284 20.5 30.5 21.1716 30.5 22C30.5 22.8284 29.8284 23.5 29 23.5H2C1.17157 23.5 0.5 22.8284 0.5 22Z" fill="#F9F5EB"/>
</svg>
