<svg width="24" height="18" viewBox="0 0 24 18" fill="none" xmlns="http://www.w3.org/2000/svg">
<path d="M10.0016 12.3532L10.0016 5.38149L16.0754 8.86654L10.0016 12.3532ZM23.5134 3.18749C23.2463 2.17229 22.4592 1.37199 21.4591 1.10095C19.6449 0.608583 12.3786 0.608583 12.3786 0.608583C12.3786 0.608583 5.11074 0.608583 3.29655 1.10095C2.29644 1.37199 1.50939 2.17229 1.24227 3.18749C0.757324 5.02865 0.757324 8.86654 0.757324 8.86654C0.757324 8.86654 0.757325 12.706 1.24227 14.5456C1.50939 15.5624 2.29644 16.3611 3.29655 16.6321C5.11074 17.1261 12.3786 17.1261 12.3786 17.1261C12.3786 17.1261 19.6449 17.1261 21.4591 16.6321C22.4592 16.3611 23.2463 15.5624 23.5134 14.5456C23.9999 12.706 23.9999 8.86654 23.9999 8.86654C23.9999 8.86654 23.9999 5.02865 23.5134 3.18749Z" fill="#F9F5EB"/>
</svg>
